 <svg
     
      width="18"
      height="22"
      viewBox="0 0 18 22"
      fill="none"
      xmlns="http://www.w3.org/2000/svg"
    >
      <path
        d="M17 2.33333H17.5V1.83333H17V2.33333ZM13 2.33333L12.6204 2.65873L12.77 2.83333H13V2.33333ZM17 5V5.5H17.5V5H17ZM1 5H0.5V5.5H1V5ZM1 2.33333V1.83333H0.5V2.33333H1ZM5 2.33333V2.83333H5.22997L5.37963 2.65873L5 2.33333ZM6.14286 1V0.5H5.91289L5.76323 0.674604L6.14286 1ZM11.8571 1L12.2368 0.674604L12.0871 0.5H11.8571V1ZM2.9997 20.9999H2.4997V21.4999H2.9997V20.9999ZM14.9997 20.9999V21.4999H15.4997V20.9999H14.9997ZM2.9997 6.99985V6.49985H2.4997V6.99985H2.9997ZM14.9997 6.99985H15.4997V6.49985H14.9997V6.99985ZM17 1.83333H13V2.83333H17V1.83333ZM17.5 5V2.33333H16.5V5H17.5ZM1 5.5H17V4.5H1V5.5ZM0.5 2.33333V5H1.5V2.33333H0.5ZM5 1.83333H1V2.83333H5V1.83333ZM5.76323 0.674604L4.62037 2.00794L5.37963 2.65873L6.52249 1.3254L5.76323 0.674604ZM11.8571 0.5H6.14286V1.5H11.8571V0.5ZM13.3796 2.00794L12.2368 0.674604L11.4775 1.3254L12.6204 2.65873L13.3796 2.00794ZM2.9997 21.4999H14.9997V20.4999H2.9997V21.4999ZM2.4997 6.99985V20.9999H3.4997V6.99985H2.4997ZM14.9997 6.49985H2.9997V7.49985H14.9997V6.49985ZM15.4997 20.9999V6.99985H14.4997V20.9999H15.4997Z"
        fill="currentColor"
      />
    </svg>